<?xml version="1.0" encoding="utf-8"?>
<!-- Generator: Adobe Illustrator 22.1.0, SVG Export Plug-In . SVG Version: 6.00 Build 0)  -->
<svg version="1.1" id="Calque_1" xmlns="http://www.w3.org/2000/svg" xmlns:xlink="http://www.w3.org/1999/xlink" x="0px" y="0px"
	 viewBox="0 0 339 45.7" style="enable-background:new 0 0 339 45.7;" xml:space="preserve">
<g>
	<path d="M4.6,24.8C4.6,12.5,14,3.9,26.9,3.9c7.8,0,14,2.9,18,8l-8.5,7.6c-2.3-3-5.1-4.7-8.8-4.7c-5.6,0-9.4,3.9-9.4,10
		s3.8,10,9.4,10c3.6,0,6.4-1.7,8.8-4.7l8.5,7.6c-3.9,5.2-10.1,8-18,8C14,45.8,4.6,37.1,4.6,24.8z"/>
	<path d="M45.8,29.2C45.8,19.7,53.4,13,64,13c10.6,0,18.2,6.7,18.2,16.2c0,9.5-7.6,16.3-18.2,16.3C53.4,45.4,45.8,38.7,45.8,29.2z
		 M69.1,29.2c0-4.1-2.2-6.1-5.1-6.1c-2.9,0-5.1,2.1-5.1,6.1s2.2,6.2,5.1,6.2C66.9,35.4,69.1,33.2,69.1,29.2z"/>
	<path d="M84.3,39.4c0-3.5,2.6-5.8,6-5.8s6,2.3,6,5.8s-2.6,5.9-6,5.9S84.3,42.8,84.3,39.4z"/>
	<path d="M128.3,44.9l-0.1-14.5l-6.9,11.7h-4.7l-6.9-11.2v14h-9.8V13h8.8l10.4,17l10.1-17h8.8l0.1,31.9H128.3z"/>
	<path d="M171.8,44.9l-0.1-14.5l-6.9,11.7h-4.7l-6.9-11.2v14h-9.8V13h8.8l10.4,17l10.1-17h8.8l0.1,31.9H171.8z"/>
	<path d="M186.5,30.5V13h10.8v17.2c0,4.9,1.9,6.7,4.9,6.7s4.9-1.8,4.9-6.7V13h10.6v17.5c0,9.6-5.7,15.1-15.5,15.1
		C192.3,45.6,186.5,40.1,186.5,30.5z"/>
	<path d="M254,13v31.9h-8.8L233,30.4v14.5h-10.5V13h8.8l12.1,14.5V13H254z"/>
	<path d="M259.2,13H270v31.9h-10.8V13z"/>
	<path d="M282,21.3h-9.3V13h29.4v8.3h-9.3v23.6H282V21.3z"/>
	<path d="M323,33.3v11.6h-10.8V33.2l-12-20.2h11.3l6.5,11l6.6-11H335L323,33.3z"/>
</g>
</svg>
